<?xml version="1.0" encoding="utf-8"?>
<!-- Generator: Adobe Illustrator 23.0.3, SVG Export Plug-In . SVG Version: 6.00 Build 0)  -->
<svg version="1.1" id="Layer_1" xmlns="http://www.w3.org/2000/svg" xmlns:xlink="http://www.w3.org/1999/xlink" x="0px" y="0px"
	 viewBox="0 0 200 200" style="enable-background:new 0 0 200 200;" xml:space="preserve">
<style type="text/css">
	.st0{fill:#006699;}
	.st1{fill:#FFFFFF;}
</style>
<path class="st0" d="M169.8,0H30.2C13.5,0,0,13.5,0,30.2v139.6C0,186.5,13.5,200,30.2,200h139.6c16.7,0,30.2-13.5,30.2-30.2V30.2
	C200,13.5,186.5,0,169.8,0z"/>
<path class="st1" d="M64,167.9V77H33.8v90.9H64z M48.9,64.6c10.5,0,17.1-7,17.1-15.7c-0.2-8.9-6.6-15.7-16.9-15.7
	C38.8,33.1,32,39.9,32,48.9c0,8.7,6.6,15.7,16.7,15.7H48.9L48.9,64.6z"/>
<path class="st1" d="M80.7,167.9h30.2v-50.8c0-2.7,0.2-5.4,1-7.4c2.2-5.4,7.2-11,15.5-11c10.9,0,15.3,8.3,15.3,20.6v48.6h30.2v-52.1
	c0-27.9-14.9-40.9-34.8-40.9c-16.3,0-23.5,9.1-27.4,15.3h0.2V77H80.7C81.1,85.5,80.7,167.8,80.7,167.9L80.7,167.9z"/>
</svg>
